<?xml version="1.0" encoding="UTF-8"?>
<svg version="1.1" xmlns="http://www.w3.org/2000/svg" width="64" height="64">
<path d="M0 0 C21.12 0 42.24 0 64 0 C64 21.12 64 42.24 64 64 C42.88 64 21.76 64 0 64 C0 42.88 0 21.76 0 0 Z " fill="#FEFEFE" transform="translate(0,0)"/>
<path d="M0 0 C5.04761905 3.04761905 5.04761905 3.04761905 7 5 C7.20988756 6.41091085 7.36831236 7.82965476 7.5 9.25 C7.73778966 11.78076135 8.00912214 14.03165334 8.71484375 16.48046875 C9.102645 19.90693187 7.97916692 21.25051928 6.0625 24.0625 C3.33274559 28.08785552 3.33274559 28.08785552 3 33 C3.98742187 33.47050781 4.97484375 33.94101562 5.9921875 34.42578125 C7.286666 35.05425994 8.58092553 35.68318981 9.875 36.3125 C10.85146484 36.7755957 10.85146484 36.7755957 11.84765625 37.24804688 C15.19676398 38.88807385 16.89005879 39.83508818 19 43 C19 45.97 19 48.94 19 52 C3.82 52 -11.36 52 -27 52 C-27 43 -27 43 -25.25 40.3125 C-20.47458126 36.9146059 -15.30623254 34.46270123 -10 32 C-11.02652005 29.87466975 -12.0996329 27.83570858 -13.32421875 25.81640625 C-13.77410156 25.07261719 -14.22398438 24.32882813 -14.6875 23.5625 C-15.14511719 22.82128906 -15.60273438 22.08007812 -16.07421875 21.31640625 C-17.23958872 18.40052275 -16.81806281 16.99494182 -16 14 C-15.88140625 13.16339844 -15.7628125 12.32679687 -15.640625 11.46484375 C-14.58131832 4.61112951 -14.58131832 4.61112951 -11.5625 1.4375 C-7.23004336 -0.9929025 -4.78361731 -1.21935343 0 0 Z " fill="#D9D9D9" transform="translate(36,12)"/>
</svg>
